<?xml version="1.0" encoding="UTF-8" standalone="no"?>
<!-- Generator: Adobe Illustrator 16.0.3, SVG Export Plug-In . SVG Version: 6.00 Build 0)  -->

<svg
   xmlns:dc="http://purl.org/dc/elements/1.1/"
   xmlns:cc="http://creativecommons.org/ns#"
   xmlns:rdf="http://www.w3.org/1999/02/22-rdf-syntax-ns#"
   xmlns:svg="http://www.w3.org/2000/svg"
   xmlns="http://www.w3.org/2000/svg"
   xmlns:sodipodi="http://sodipodi.sourceforge.net/DTD/sodipodi-0.dtd"
   xmlns:inkscape="http://www.inkscape.org/namespaces/inkscape"
   version="1.1"
   id="Ebene_1"
   x="0px"
   y="0px"
   width="430px"
   height="35px"
   viewBox="-2.5 -2.5 430 35"
   enable-background="new -2.5 -2.5 430 35"
   xml:space="preserve"
   inkscape:version="0.48.1 r9760"
   sodipodi:docname="logo.svg"><metadata
     id="metadata17"><rdf:RDF><cc:Work
         rdf:about=""><dc:format>image/svg+xml</dc:format><dc:type
           rdf:resource="http://purl.org/dc/dcmitype/StillImage" /></cc:Work></rdf:RDF></metadata><defs
     id="defs15" /><sodipodi:namedview
     pagecolor="#ffffff"
     bordercolor="#666666"
     borderopacity="1"
     objecttolerance="10"
     gridtolerance="10"
     guidetolerance="10"
     inkscape:pageopacity="0"
     inkscape:pageshadow="2"
     inkscape:window-width="860"
     inkscape:window-height="662"
     id="namedview13"
     showgrid="false"
     inkscape:zoom="1.1837209"
     inkscape:cx="215"
     inkscape:cy="17.5"
     inkscape:window-x="72"
     inkscape:window-y="10"
     inkscape:window-maximized="0"
     inkscape:current-layer="Ebene_1"
     showguides="true"
     inkscape:guide-bbox="true" /><g
     style="font-size:40px;font-style:normal;font-variant:normal;font-weight:500;font-stretch:normal;line-height:125%;letter-spacing:0px;word-spacing:0px;fill:#000000;fill-opacity:1;stroke:none;font-family:Ubuntu;-inkscape-font-specification:Ubuntu Medium"
     id="text3065"
     transform="translate(-1.6895875,0.209)"><path
       d="m 23.802319,28.691 0,-27.72000002 17.8,0 0,4.28000002 -12.76,0 0,6.84 11.36,0 0,4.2 -11.36,0 0,8.12 13.72,0 0,4.28 -18.76,0"
       style="letter-spacing:10px"
       id="path3070"
       inkscape:connector-curvature="0" /><path
       d="m 62.279819,24.531 c 0.293325,0.02667 0.679991,0.05334 1.16,0.08 0.47999,4e-6 1.133323,4e-6 1.96,0 3.386652,4e-6 5.906649,-0.853328 7.56,-2.56 1.679979,-1.733325 2.519978,-4.146656 2.52,-7.24 -2.2e-5,-3.14665 -0.813354,-5.5599806 -2.44,-7.24 -1.626684,-1.6799772 -4.146682,-2.5199764 -7.56,-2.52 -1.493344,2.36e-5 -2.560009,0.040024 -3.2,0.12 l 0,19.36 m 18.48,-9.72 c -2.7e-5,2.400011 -0.37336,4.493343 -1.12,6.28 -0.746692,1.760006 -1.813357,3.240004 -3.2,4.44 -1.360021,1.173335 -3.013353,2.053334 -4.96,2.64 -1.920016,0.56 -4.053347,0.84 -6.4,0.84 -1.12001,0 -2.386676,-0.05333 -3.8,-0.16 -1.413339,-0.08 -2.760005,-0.266667 -4.04,-0.56 l 0,-26.92 c 1.279995,-0.2933057 2.639994,-0.47997222 4.08,-0.56000002 1.439991,-0.079972 2.71999,-0.119972 3.84,-0.12 2.319986,2.8e-5 4.439984,0.28002772 6.36,0.84000002 1.91998,0.5333599 3.559979,1.3866924 4.92,2.56 1.386643,1.1466901 2.453308,2.6133553 3.2,4.4 0.74664,1.760018 1.119973,3.866683 1.12,6.32"
       style="letter-spacing:10px"
       id="path3072"
       inkscape:connector-curvature="0" /><path
       d="m 96.302319,0.97099998 5.040001,0 0,27.72000002 -5.040001,0 0,-27.72000002"
       style="letter-spacing:10px"
       id="path3074"
       inkscape:connector-curvature="0" /><path
       d="m 137.34107,0.97099998 0,4.36000002 -8.52,0 0,23.36 -5.08,0 0,-23.36 -8.52,0 0,-4.36000002 22.12,0"
       style="letter-spacing:10px"
       id="path3076"
       inkscape:connector-curvature="0" /><path
       d="m 151.14607,0.97099998 5.04,0 0,27.72000002 -5.04,0 0,-27.72000002"
       style="letter-spacing:10px"
       id="path3078"
       inkscape:connector-curvature="0" /><path
       d="m 176.98482,14.811 c -1e-5,1.520012 0.18666,2.906678 0.56,4.16 0.37332,1.226675 0.90666,2.280007 1.6,3.16 0.71999,0.853339 1.58665,1.520005 2.6,2 1.01332,0.480004 2.15998,0.720004 3.44,0.72 1.25332,4e-6 2.38665,-0.239996 3.4,-0.72 1.01331,-0.479995 1.86664,-1.146661 2.56,-2 0.71998,-0.879993 1.26664,-1.933325 1.64,-3.16 0.37331,-1.253322 0.55998,-2.639988 0.56,-4.16 -2e-5,-1.519985 -0.18669,-2.893317 -0.56,-4.12 -0.37336,-1.2533141 -0.92002,-2.3066464 -1.64,-3.16 -0.69336,-0.879978 -1.54669,-1.5599773 -2.56,-2.04 -1.01335,-0.4799763 -2.14668,-0.7199761 -3.4,-0.72 -1.28002,2.39e-5 -2.42668,0.2400237 -3.44,0.72 -1.01335,0.4800227 -1.88001,1.160022 -2.6,2.04 -0.69334,0.8800203 -1.22668,1.9333525 -1.6,3.16 -0.37334,1.226683 -0.56001,2.600015 -0.56,4.12 m 21.64,0 c -3e-5,2.373345 -0.36003,4.466676 -1.08,6.28 -0.69336,1.813339 -1.65336,3.333338 -2.88,4.56 -1.20003,1.200002 -2.61336,2.106668 -4.24,2.72 -1.62669,0.613333 -3.36002,0.919999 -5.2,0.92 -1.84001,-1e-6 -3.58668,-0.306667 -5.24,-0.92 -1.62668,-0.613332 -3.05334,-1.519998 -4.28,-2.72 -1.20001,-1.226662 -2.16001,-2.746661 -2.88,-4.56 -0.72,-1.813324 -1.08,-3.906655 -1.08,-6.28 0,-2.373317 0.36,-4.453315 1.08,-6.24 0.71999,-1.8133114 1.69333,-3.3333099 2.92,-4.56 1.25332,-1.2266408 2.69332,-2.1466399 4.32,-2.76 1.62665,-0.6133053 3.34665,-0.91997166 5.16,-0.92000002 1.81331,2.836e-5 3.53331,0.30669472 5.16,0.92000002 1.62664,0.6133601 3.03997,1.5333592 4.24,2.76 1.22664,1.2266901 2.19997,2.7466886 2.92,4.56 0.71997,1.786685 1.07997,3.866683 1.08,6.24"
       style="letter-spacing:10px"
       id="path3080"
       inkscape:connector-curvature="0" /><path
       d="m 232.79482,28.691 c -0.90669,-1.519998 -1.92002,-3.146664 -3.04,-4.88 -1.12002,-1.759993 -2.28002,-3.519992 -3.48,-5.28 -1.20002,-1.786655 -2.42668,-3.506653 -3.68,-5.16 -1.22668,-1.679983 -2.40001,-3.186648 -3.52,-4.52 l 0,19.84 -4.96,0 0,-27.72000002 4.12,0 c 1.06666,1.12002662 2.21332,2.45335862 3.44,4.00000002 1.22665,1.5200222 2.45332,3.1066873 3.68,4.76 1.25332,1.653351 2.45332,3.320016 3.6,5 1.17331,1.653346 2.21331,3.200011 3.12,4.64 l 0,-18.40000002 5,0 0,27.72000002 -4.28,0"
       style="letter-spacing:10px"
       id="path3082"
       inkscape:connector-curvature="0" /><path
       d="m 251.32419,15.051 10.76,0 0,4.44 -10.76,0 0,-4.44"
       style="letter-spacing:10px"
       id="path3084"
       inkscape:connector-curvature="0" /><path
       d="m 284.66232,29.011 c -1.46668,0 -2.94668,-0.05333 -4.44,-0.16 -1.49334,-0.08 -2.80001,-0.266667 -3.92,-0.56 l 0,-26.92 c 0.58666,-0.1066393 1.21333,-0.1999725 1.88,-0.28 0.66666,-0.10663898 1.34666,-0.1866389 2.04,-0.24000002 0.69332,-0.0533054 1.37332,-0.0933054 2.04,-0.12 0.69332,-0.0266387 1.34665,-0.039972 1.96,-0.04 1.67999,2.8e-5 3.23998,0.1333612 4.68,0.40000002 1.43998,0.2400273 2.67998,0.6533603 3.72,1.24 1.06664,0.5866924 1.89331,1.360025 2.48,2.32 0.58664,0.9600231 0.87998,2.1466885 0.88,3.56 -2e-5,1.3066858 -0.32002,2.426685 -0.96,3.36 -0.61336,0.93335 -1.48002,1.680015 -2.6,2.24 1.67998,0.560014 2.91998,1.38668 3.72,2.48 0.79997,1.093345 1.19997,2.48001 1.2,4.16 -3e-5,2.853339 -1.04002,5.000003 -3.12,6.44 -2.08002,1.413334 -5.26668,2.12 -9.56,2.12 m -3.4,-12.8 0,8.44 c 0.55999,0.05334 1.15999,0.09334 1.8,0.12 0.63999,0.02667 1.22665,0.04 1.76,0.04 1.03999,4e-6 1.99999,-0.06666 2.88,-0.2 0.90665,-0.133329 1.67998,-0.359996 2.32,-0.68 0.66665,-0.346662 1.18665,-0.799994 1.56,-1.36 0.39998,-0.559993 0.59998,-1.279993 0.6,-2.16 -2e-5,-1.573323 -0.57335,-2.666656 -1.72,-3.28 -1.14668,-0.613321 -2.73335,-0.919988 -4.76,-0.92 l -4.44,0 m 0,-3.96 3.56,0 c 1.91999,1.6e-5 3.42665,-0.26665 4.52,-0.8 1.09331,-0.559982 1.63998,-1.5466479 1.64,-2.96 -2e-5,-1.3333118 -0.57335,-2.2799775 -1.72,-2.84 -1.12002,-0.5599764 -2.58668,-0.8399761 -4.4,-0.84 -0.77335,2.39e-5 -1.46668,0.013357 -2.08,0.04 -0.58668,0.02669 -1.09334,0.06669 -1.52,0.12 l 0,7.28"
       style="letter-spacing:10px"
       id="path3086"
       inkscape:connector-curvature="0" /><path
       d="m 330.95232,28.691 c -0.37336,-1.093332 -0.76002,-2.173331 -1.16,-3.24 -0.40002,-1.066662 -0.78669,-2.159995 -1.16,-3.28 l -11.68,0 c -0.37334,1.120005 -0.76001,2.226671 -1.16,3.32 -0.37334,1.066669 -0.74667,2.133334 -1.12,3.2 l -5.24,0 c 1.04,-2.959997 2.02666,-5.693328 2.96,-8.2 0.93333,-2.506656 1.83999,-4.879987 2.72,-7.12 0.90666,-2.239982 1.79999,-4.3733137 2.68,-6.4 0.87999,-2.0266429 1.78666,-4.0266409 2.72,-6.00000002 l 4.76,0 c 0.93332,1.97335912 1.83998,3.97335712 2.72,6.00000002 0.87998,2.0266863 1.75998,4.160018 2.64,6.4 0.90664,2.240013 1.82664,4.613344 2.76,7.12 0.95997,2.506672 1.95997,5.240003 3,8.2 l -5.44,0 m -8.16,-22.36 c -0.61335,1.4133543 -1.32001,3.1333525 -2.12,5.16 -0.77335,2.026682 -1.58668,4.22668 -2.44,6.6 l 9.12,0 c -0.85335,-2.37332 -1.68002,-4.586651 -2.48,-6.64 -0.80002,-2.0533141 -1.49335,-3.759979 -2.08,-5.12"
       style="letter-spacing:10px"
       id="path3088"
       inkscape:connector-curvature="0" /><path
       d="m 357.16294,24.931 c 1.81333,4e-6 3.13332,-0.306663 3.96,-0.92 0.82666,-0.613328 1.23999,-1.479994 1.24,-2.6 -10e-6,-0.666659 -0.14668,-1.239991 -0.44,-1.72 -0.26668,-0.479991 -0.66668,-0.906657 -1.2,-1.28 -0.50668,-0.399989 -1.13334,-0.759989 -1.88,-1.08 -0.74667,-0.346655 -1.60001,-0.679988 -2.56,-1 -0.96,-0.346654 -1.89334,-0.719987 -2.8,-1.12 -0.88,-0.426653 -1.66667,-0.946652 -2.36,-1.56 -0.66667,-0.613318 -1.21333,-1.34665 -1.64,-2.2 -0.4,-0.853315 -0.6,-1.8799809 -0.6,-3.08 0,-2.5066439 0.86667,-4.4666419 2.6,-5.88 1.73333,-1.4399724 4.09333,-2.15997166 7.08,-2.16000002 1.73332,2.836e-5 3.26666,0.20002816 4.6,0.6 1.35999,0.37336072 2.42665,0.78669362 3.2,1.24000002 l -1.56,4.08 c -0.90668,-0.5066437 -1.90668,-0.89331 -3,-1.16 -1.06668,-0.2666428 -2.17334,-0.399976 -3.32,-0.4 -1.36001,2.4e-5 -2.42667,0.2800237 -3.2,0.84 -0.74667,0.5600226 -1.12,1.3466885 -1.12,2.36 0,0.6133535 0.12,1.1466863 0.36,1.6 0.26666,0.4266854 0.62666,0.813352 1.08,1.16 0.47999,0.346684 1.02666,0.666684 1.64,0.96 0.63999,0.29335 1.33333,0.57335 2.08,0.84 1.30666,0.480016 2.46666,0.973349 3.48,1.48 1.03999,0.480014 1.90665,1.06668 2.6,1.76 0.71998,0.666679 1.26665,1.466678 1.64,2.4 0.37332,0.906676 0.55998,2.013342 0.56,3.32 -2e-5,2.506671 -0.89335,4.453336 -2.68,5.84 -1.76001,1.36 -4.34668,2.039999 -7.76,2.04 -1.14667,-1e-6 -2.2,-0.08 -3.16,-0.24 -0.93334,-0.133334 -1.77333,-0.306667 -2.52,-0.52 -0.72,-0.213333 -1.34667,-0.426666 -1.88,-0.64 -0.53333,-0.239999 -0.96,-0.453332 -1.28,-0.64 l 1.48,-4.12 c 0.72,0.400005 1.69333,0.800005 2.92,1.2 1.22666,0.400004 2.70666,0.600004 4.44,0.6"
       style="letter-spacing:10px"
       id="path3090"
       inkscape:connector-curvature="0" /><path
       d="m 382.00544,28.691 0,-27.72000002 17.8,0 0,4.28000002 -12.76,0 0,6.84 11.36,0 0,4.2 -11.36,0 0,8.12 13.72,0 0,4.28 -18.76,0"
       style="letter-spacing:10px"
       id="path3092"
       inkscape:connector-curvature="0" /></g></svg>